<mxfile host="app.diagrams.net" modified="2024-06-13T19:09:20.339Z" agent="Mozilla/5.0 (Windows NT 10.0; Win64; x64; rv:127.0) Gecko/20100101 Firefox/127.0" etag="BZyX-X4ADGcxbWWrfwn5" version="24.5.4" type="device">
  <diagram name="Page-1" id="D9KrbN1HpGchZC3lj7AW">
    <mxGraphModel dx="2390" dy="1257" grid="1" gridSize="10" guides="1" tooltips="1" connect="1" arrows="1" fold="1" page="1" pageScale="1" pageWidth="850" pageHeight="1100" math="0" shadow="0">
      <root>
        <mxCell id="0" />
        <mxCell id="1" parent="0" />
        <mxCell id="ceFsXSFSjBCuf6hGeXLl-53" value="" style="rounded=0;whiteSpace=wrap;html=1;" vertex="1" parent="1">
          <mxGeometry x="110" y="20" width="630" height="1070" as="geometry" />
        </mxCell>
        <mxCell id="ceFsXSFSjBCuf6hGeXLl-54" value="Customer" style="shape=umlActor;verticalLabelPosition=bottom;verticalAlign=top;html=1;outlineConnect=0;" vertex="1" parent="1">
          <mxGeometry x="40" y="575" width="30" height="60" as="geometry" />
        </mxCell>
        <mxCell id="ceFsXSFSjBCuf6hGeXLl-55" value="Librarian" style="shape=umlActor;verticalLabelPosition=bottom;verticalAlign=top;html=1;outlineConnect=0;" vertex="1" parent="1">
          <mxGeometry x="783.78" y="575" width="30" height="60" as="geometry" />
        </mxCell>
        <mxCell id="ceFsXSFSjBCuf6hGeXLl-56" value="&lt;b&gt;Library&lt;br&gt;&lt;/b&gt;" style="text;html=1;align=center;verticalAlign=middle;whiteSpace=wrap;rounded=0;" vertex="1" parent="1">
          <mxGeometry x="386.25" y="30" width="73.75" height="30" as="geometry" />
        </mxCell>
        <mxCell id="ceFsXSFSjBCuf6hGeXLl-57" value="" style="endArrow=none;html=1;rounded=0;entryX=1;entryY=0;entryDx=0;entryDy=0;exitX=0;exitY=0.3333333333333333;exitDx=0;exitDy=0;exitPerimeter=0;" edge="1" parent="1" source="ceFsXSFSjBCuf6hGeXLl-55" target="ceFsXSFSjBCuf6hGeXLl-65">
          <mxGeometry width="50" height="50" relative="1" as="geometry">
            <mxPoint x="323.78" y="495" as="sourcePoint" />
            <mxPoint x="743.779999999995" y="440" as="targetPoint" />
          </mxGeometry>
        </mxCell>
        <mxCell id="ceFsXSFSjBCuf6hGeXLl-58" value="" style="endArrow=none;html=1;rounded=0;entryX=0;entryY=0.5;entryDx=0;entryDy=0;exitX=1;exitY=0.3333333333333333;exitDx=0;exitDy=0;exitPerimeter=0;" edge="1" parent="1" source="ceFsXSFSjBCuf6hGeXLl-54" target="ceFsXSFSjBCuf6hGeXLl-76">
          <mxGeometry width="50" height="50" relative="1" as="geometry">
            <mxPoint x="106" y="610" as="sourcePoint" />
            <mxPoint x="133.48349570550454" y="742.3223304703365" as="targetPoint" />
          </mxGeometry>
        </mxCell>
        <mxCell id="ceFsXSFSjBCuf6hGeXLl-59" value="" style="endArrow=none;html=1;rounded=0;entryX=0;entryY=0.5;entryDx=0;entryDy=0;exitX=1;exitY=0.3333333333333333;exitDx=0;exitDy=0;exitPerimeter=0;" edge="1" parent="1" source="ceFsXSFSjBCuf6hGeXLl-54" target="ceFsXSFSjBCuf6hGeXLl-74">
          <mxGeometry width="50" height="50" relative="1" as="geometry">
            <mxPoint x="100" y="595" as="sourcePoint" />
            <mxPoint x="130.98349570550454" y="477.67766952966304" as="targetPoint" />
          </mxGeometry>
        </mxCell>
        <mxCell id="ceFsXSFSjBCuf6hGeXLl-60" value="" style="endArrow=none;html=1;rounded=0;entryX=0;entryY=0.5;entryDx=0;entryDy=0;exitX=1;exitY=0.3333333333333333;exitDx=0;exitDy=0;exitPerimeter=0;" edge="1" parent="1" source="ceFsXSFSjBCuf6hGeXLl-54" target="ceFsXSFSjBCuf6hGeXLl-75">
          <mxGeometry width="50" height="50" relative="1" as="geometry">
            <mxPoint x="30" y="615" as="sourcePoint" />
            <mxPoint x="120" y="660" as="targetPoint" />
          </mxGeometry>
        </mxCell>
        <mxCell id="ceFsXSFSjBCuf6hGeXLl-61" value="" style="endArrow=none;html=1;rounded=0;entryX=1;entryY=1;entryDx=0;entryDy=0;exitX=0;exitY=0.3333333333333333;exitDx=0;exitDy=0;exitPerimeter=0;" edge="1" parent="1" source="ceFsXSFSjBCuf6hGeXLl-55" target="ceFsXSFSjBCuf6hGeXLl-66">
          <mxGeometry width="50" height="50" relative="1" as="geometry">
            <mxPoint x="793.78" y="405" as="sourcePoint" />
            <mxPoint x="743.779999999995" y="340" as="targetPoint" />
          </mxGeometry>
        </mxCell>
        <mxCell id="ceFsXSFSjBCuf6hGeXLl-62" value="" style="endArrow=none;html=1;rounded=0;entryX=1;entryY=0;entryDx=0;entryDy=0;exitX=0;exitY=0.3333333333333333;exitDx=0;exitDy=0;exitPerimeter=0;" edge="1" parent="1" source="ceFsXSFSjBCuf6hGeXLl-55" target="ceFsXSFSjBCuf6hGeXLl-95">
          <mxGeometry width="50" height="50" relative="1" as="geometry">
            <mxPoint x="803.78" y="475" as="sourcePoint" />
            <mxPoint x="702.1531060122941" y="995.2512626584708" as="targetPoint" />
          </mxGeometry>
        </mxCell>
        <mxCell id="ceFsXSFSjBCuf6hGeXLl-63" value="Create entry of titles" style="ellipse;whiteSpace=wrap;html=1;" vertex="1" parent="1">
          <mxGeometry x="442.52" y="90" width="105" height="70" as="geometry" />
        </mxCell>
        <mxCell id="ceFsXSFSjBCuf6hGeXLl-64" value="Update loan status" style="ellipse;whiteSpace=wrap;html=1;" vertex="1" parent="1">
          <mxGeometry x="442.52" y="545" width="105" height="70" as="geometry" />
        </mxCell>
        <mxCell id="ceFsXSFSjBCuf6hGeXLl-65" value="Manage loans" style="ellipse;whiteSpace=wrap;html=1;" vertex="1" parent="1">
          <mxGeometry x="613.77" y="585" width="105" height="70" as="geometry" />
        </mxCell>
        <mxCell id="ceFsXSFSjBCuf6hGeXLl-66" value="Manage titles" style="ellipse;whiteSpace=wrap;html=1;" vertex="1" parent="1">
          <mxGeometry x="613.74" y="225" width="105" height="70" as="geometry" />
        </mxCell>
        <mxCell id="ceFsXSFSjBCuf6hGeXLl-67" value="" style="endArrow=none;html=1;rounded=0;entryX=1;entryY=1;entryDx=0;entryDy=0;exitX=0;exitY=0.5;exitDx=0;exitDy=0;startArrow=classic;startFill=1;dashed=1;" edge="1" parent="1" source="ceFsXSFSjBCuf6hGeXLl-66" target="ceFsXSFSjBCuf6hGeXLl-63">
          <mxGeometry width="50" height="50" relative="1" as="geometry">
            <mxPoint x="598.74" y="259.75" as="sourcePoint" />
            <mxPoint x="548.74" y="259.75" as="targetPoint" />
          </mxGeometry>
        </mxCell>
        <mxCell id="ceFsXSFSjBCuf6hGeXLl-68" value="&amp;lt;&amp;lt;extends&amp;gt;&amp;gt;" style="edgeLabel;html=1;align=center;verticalAlign=middle;resizable=0;points=[];" vertex="1" connectable="0" parent="ceFsXSFSjBCuf6hGeXLl-67">
          <mxGeometry x="-0.4177" relative="1" as="geometry">
            <mxPoint x="-26" y="-48" as="offset" />
          </mxGeometry>
        </mxCell>
        <mxCell id="ceFsXSFSjBCuf6hGeXLl-69" value="" style="endArrow=none;html=1;rounded=0;entryX=1;entryY=1;entryDx=0;entryDy=0;exitX=0;exitY=0.5;exitDx=0;exitDy=0;startArrow=classic;startFill=1;dashed=1;" edge="1" parent="1" source="ceFsXSFSjBCuf6hGeXLl-65" target="ceFsXSFSjBCuf6hGeXLl-64">
          <mxGeometry width="50" height="50" relative="1" as="geometry">
            <mxPoint x="616.25" y="499.6400000000001" as="sourcePoint" />
            <mxPoint x="546.25" y="499.6400000000001" as="targetPoint" />
          </mxGeometry>
        </mxCell>
        <mxCell id="ceFsXSFSjBCuf6hGeXLl-70" value="&amp;lt;&amp;lt;Includes&amp;gt;&amp;gt;" style="edgeLabel;html=1;align=center;verticalAlign=middle;resizable=0;points=[];" vertex="1" connectable="0" parent="ceFsXSFSjBCuf6hGeXLl-69">
          <mxGeometry x="-0.4177" relative="1" as="geometry">
            <mxPoint x="-30" y="-15" as="offset" />
          </mxGeometry>
        </mxCell>
        <mxCell id="ceFsXSFSjBCuf6hGeXLl-71" value="Lookup loan status" style="ellipse;whiteSpace=wrap;html=1;" vertex="1" parent="1">
          <mxGeometry x="442.52" y="635" width="105" height="70" as="geometry" />
        </mxCell>
        <mxCell id="ceFsXSFSjBCuf6hGeXLl-72" value="" style="endArrow=none;html=1;rounded=0;entryX=1;entryY=0;entryDx=0;entryDy=0;exitX=0;exitY=0.5;exitDx=0;exitDy=0;startArrow=classic;startFill=1;dashed=1;" edge="1" parent="1" source="ceFsXSFSjBCuf6hGeXLl-65" target="ceFsXSFSjBCuf6hGeXLl-71">
          <mxGeometry width="50" height="50" relative="1" as="geometry">
            <mxPoint x="637.25" y="485" as="sourcePoint" />
            <mxPoint x="541.25" y="445" as="targetPoint" />
          </mxGeometry>
        </mxCell>
        <mxCell id="ceFsXSFSjBCuf6hGeXLl-73" value="&amp;lt;&amp;lt;Includes&amp;gt;&amp;gt;" style="edgeLabel;html=1;align=center;verticalAlign=middle;resizable=0;points=[];" vertex="1" connectable="0" parent="ceFsXSFSjBCuf6hGeXLl-72">
          <mxGeometry x="-0.4177" relative="1" as="geometry">
            <mxPoint x="-24" y="19" as="offset" />
          </mxGeometry>
        </mxCell>
        <mxCell id="ceFsXSFSjBCuf6hGeXLl-74" value="Purchase title" style="ellipse;whiteSpace=wrap;html=1;" vertex="1" parent="1">
          <mxGeometry x="140" y="435" width="105" height="70" as="geometry" />
        </mxCell>
        <mxCell id="ceFsXSFSjBCuf6hGeXLl-75" value="Return title" style="ellipse;whiteSpace=wrap;html=1;" vertex="1" parent="1">
          <mxGeometry x="140" y="525" width="105" height="70" as="geometry" />
        </mxCell>
        <mxCell id="ceFsXSFSjBCuf6hGeXLl-76" value="Rent title" style="ellipse;whiteSpace=wrap;html=1;" vertex="1" parent="1">
          <mxGeometry x="140" y="615" width="105" height="70" as="geometry" />
        </mxCell>
        <mxCell id="ceFsXSFSjBCuf6hGeXLl-77" value="Create a reservation" style="ellipse;whiteSpace=wrap;html=1;" vertex="1" parent="1">
          <mxGeometry x="140" y="705" width="105" height="70" as="geometry" />
        </mxCell>
        <mxCell id="ceFsXSFSjBCuf6hGeXLl-78" value="" style="endArrow=none;html=1;rounded=0;entryX=0;entryY=0.5;entryDx=0;entryDy=0;exitX=1;exitY=0.3333333333333333;exitDx=0;exitDy=0;exitPerimeter=0;" edge="1" parent="1" source="ceFsXSFSjBCuf6hGeXLl-54" target="ceFsXSFSjBCuf6hGeXLl-77">
          <mxGeometry width="50" height="50" relative="1" as="geometry">
            <mxPoint x="80" y="605" as="sourcePoint" />
            <mxPoint x="170" y="700" as="targetPoint" />
          </mxGeometry>
        </mxCell>
        <mxCell id="ceFsXSFSjBCuf6hGeXLl-79" value="Update entry of titles" style="ellipse;whiteSpace=wrap;html=1;" vertex="1" parent="1">
          <mxGeometry x="440" y="180" width="105" height="70" as="geometry" />
        </mxCell>
        <mxCell id="ceFsXSFSjBCuf6hGeXLl-80" value="Delete entry of titles" style="ellipse;whiteSpace=wrap;html=1;" vertex="1" parent="1">
          <mxGeometry x="440" y="360" width="105" height="70" as="geometry" />
        </mxCell>
        <mxCell id="ceFsXSFSjBCuf6hGeXLl-81" value="" style="endArrow=none;html=1;rounded=0;entryX=1;entryY=1;entryDx=0;entryDy=0;exitX=0;exitY=0.5;exitDx=0;exitDy=0;startArrow=classic;startFill=1;dashed=1;" edge="1" parent="1" source="ceFsXSFSjBCuf6hGeXLl-66" target="ceFsXSFSjBCuf6hGeXLl-79">
          <mxGeometry width="50" height="50" relative="1" as="geometry">
            <mxPoint x="623.78" y="270" as="sourcePoint" />
            <mxPoint x="555.78" y="200" as="targetPoint" />
          </mxGeometry>
        </mxCell>
        <mxCell id="ceFsXSFSjBCuf6hGeXLl-82" value="&amp;lt;&amp;lt;extends&amp;gt;&amp;gt;" style="edgeLabel;html=1;align=center;verticalAlign=middle;resizable=0;points=[];" vertex="1" connectable="0" parent="ceFsXSFSjBCuf6hGeXLl-81">
          <mxGeometry x="-0.4177" relative="1" as="geometry">
            <mxPoint x="-30" y="76" as="offset" />
          </mxGeometry>
        </mxCell>
        <mxCell id="ceFsXSFSjBCuf6hGeXLl-83" value="" style="endArrow=none;html=1;rounded=0;entryX=1;entryY=0;entryDx=0;entryDy=0;exitX=0;exitY=0.5;exitDx=0;exitDy=0;startArrow=classic;startFill=1;dashed=1;" edge="1" parent="1" source="ceFsXSFSjBCuf6hGeXLl-66" target="ceFsXSFSjBCuf6hGeXLl-80">
          <mxGeometry width="50" height="50" relative="1" as="geometry">
            <mxPoint x="623.78" y="270" as="sourcePoint" />
            <mxPoint x="540.78" y="215" as="targetPoint" />
          </mxGeometry>
        </mxCell>
        <mxCell id="ceFsXSFSjBCuf6hGeXLl-84" value="&amp;lt;&amp;lt;Includes&amp;gt;&amp;gt;" style="edgeLabel;html=1;align=center;verticalAlign=middle;resizable=0;points=[];" vertex="1" connectable="0" parent="ceFsXSFSjBCuf6hGeXLl-83">
          <mxGeometry x="-0.4177" relative="1" as="geometry">
            <mxPoint x="-26" y="-12" as="offset" />
          </mxGeometry>
        </mxCell>
        <mxCell id="ceFsXSFSjBCuf6hGeXLl-85" value="Create loan" style="ellipse;whiteSpace=wrap;html=1;" vertex="1" parent="1">
          <mxGeometry x="441.25" y="455" width="105" height="70" as="geometry" />
        </mxCell>
        <mxCell id="ceFsXSFSjBCuf6hGeXLl-86" value="" style="endArrow=none;html=1;rounded=0;entryX=1;entryY=1;entryDx=0;entryDy=0;exitX=0;exitY=0.5;exitDx=0;exitDy=0;startArrow=classic;startFill=1;dashed=1;" edge="1" parent="1" source="ceFsXSFSjBCuf6hGeXLl-65" target="ceFsXSFSjBCuf6hGeXLl-85">
          <mxGeometry width="50" height="50" relative="1" as="geometry">
            <mxPoint x="623.78" y="610" as="sourcePoint" />
            <mxPoint x="555.78" y="610" as="targetPoint" />
          </mxGeometry>
        </mxCell>
        <mxCell id="ceFsXSFSjBCuf6hGeXLl-87" value="&amp;lt;&amp;lt;extends&amp;gt;&amp;gt;" style="edgeLabel;html=1;align=center;verticalAlign=middle;resizable=0;points=[];" vertex="1" connectable="0" parent="ceFsXSFSjBCuf6hGeXLl-86">
          <mxGeometry x="-0.4177" relative="1" as="geometry">
            <mxPoint x="-26" y="-49" as="offset" />
          </mxGeometry>
        </mxCell>
        <mxCell id="ceFsXSFSjBCuf6hGeXLl-88" value="Lookup entry of titles" style="ellipse;whiteSpace=wrap;html=1;" vertex="1" parent="1">
          <mxGeometry x="440" y="270" width="105" height="70" as="geometry" />
        </mxCell>
        <mxCell id="ceFsXSFSjBCuf6hGeXLl-89" value="" style="endArrow=none;html=1;rounded=0;entryX=1;entryY=0;entryDx=0;entryDy=0;exitX=0;exitY=0.5;exitDx=0;exitDy=0;startArrow=classic;startFill=1;dashed=1;" edge="1" parent="1" source="ceFsXSFSjBCuf6hGeXLl-66" target="ceFsXSFSjBCuf6hGeXLl-88">
          <mxGeometry width="50" height="50" relative="1" as="geometry">
            <mxPoint x="623.78" y="270" as="sourcePoint" />
            <mxPoint x="539.78" y="425" as="targetPoint" />
          </mxGeometry>
        </mxCell>
        <mxCell id="ceFsXSFSjBCuf6hGeXLl-90" value="&amp;lt;&amp;lt;Includes&amp;gt;&amp;gt;" style="edgeLabel;html=1;align=center;verticalAlign=middle;resizable=0;points=[];" vertex="1" connectable="0" parent="ceFsXSFSjBCuf6hGeXLl-89">
          <mxGeometry x="-0.4177" relative="1" as="geometry">
            <mxPoint x="-26" y="-41" as="offset" />
          </mxGeometry>
        </mxCell>
        <mxCell id="ceFsXSFSjBCuf6hGeXLl-91" value="Delete loan status" style="ellipse;whiteSpace=wrap;html=1;" vertex="1" parent="1">
          <mxGeometry x="442.52" y="725" width="105" height="70" as="geometry" />
        </mxCell>
        <mxCell id="ceFsXSFSjBCuf6hGeXLl-92" value="" style="endArrow=none;html=1;rounded=0;entryX=1;entryY=0;entryDx=0;entryDy=0;exitX=0;exitY=0.5;exitDx=0;exitDy=0;startArrow=classic;startFill=1;dashed=1;" edge="1" parent="1" source="ceFsXSFSjBCuf6hGeXLl-65" target="ceFsXSFSjBCuf6hGeXLl-91">
          <mxGeometry width="50" height="50" relative="1" as="geometry">
            <mxPoint x="623.78" y="630" as="sourcePoint" />
            <mxPoint x="540.78" y="525" as="targetPoint" />
          </mxGeometry>
        </mxCell>
        <mxCell id="ceFsXSFSjBCuf6hGeXLl-93" value="&amp;lt;&amp;lt;extends&amp;gt;&amp;gt;" style="edgeLabel;html=1;align=center;verticalAlign=middle;resizable=0;points=[];" vertex="1" connectable="0" parent="ceFsXSFSjBCuf6hGeXLl-92">
          <mxGeometry x="-0.4177" relative="1" as="geometry">
            <mxPoint x="-26" y="42" as="offset" />
          </mxGeometry>
        </mxCell>
        <mxCell id="ceFsXSFSjBCuf6hGeXLl-94" value="Cancel reservation status" style="ellipse;whiteSpace=wrap;html=1;" vertex="1" parent="1">
          <mxGeometry x="442.52" y="905" width="105" height="70" as="geometry" />
        </mxCell>
        <mxCell id="ceFsXSFSjBCuf6hGeXLl-95" value="Manage reservations" style="ellipse;whiteSpace=wrap;html=1;" vertex="1" parent="1">
          <mxGeometry x="613.77" y="905" width="105" height="70" as="geometry" />
        </mxCell>
        <mxCell id="ceFsXSFSjBCuf6hGeXLl-96" value="" style="endArrow=none;html=1;rounded=0;entryX=1;entryY=0.5;entryDx=0;entryDy=0;exitX=0;exitY=0.5;exitDx=0;exitDy=0;startArrow=classic;startFill=1;dashed=1;" edge="1" parent="1" source="ceFsXSFSjBCuf6hGeXLl-95" target="ceFsXSFSjBCuf6hGeXLl-94">
          <mxGeometry width="50" height="50" relative="1" as="geometry">
            <mxPoint x="616.25" y="859.6400000000001" as="sourcePoint" />
            <mxPoint x="546.25" y="859.6400000000001" as="targetPoint" />
          </mxGeometry>
        </mxCell>
        <mxCell id="ceFsXSFSjBCuf6hGeXLl-97" value="&amp;lt;&amp;lt;Includes&amp;gt;&amp;gt;" style="edgeLabel;html=1;align=center;verticalAlign=middle;resizable=0;points=[];" vertex="1" connectable="0" parent="ceFsXSFSjBCuf6hGeXLl-96">
          <mxGeometry x="-0.4177" relative="1" as="geometry">
            <mxPoint x="-30" y="-15" as="offset" />
          </mxGeometry>
        </mxCell>
        <mxCell id="ceFsXSFSjBCuf6hGeXLl-98" value="Mark reservation as complete" style="ellipse;whiteSpace=wrap;html=1;" vertex="1" parent="1">
          <mxGeometry x="442.52" y="995" width="105" height="70" as="geometry" />
        </mxCell>
        <mxCell id="ceFsXSFSjBCuf6hGeXLl-99" value="" style="endArrow=none;html=1;rounded=0;entryX=1;entryY=0;entryDx=0;entryDy=0;exitX=0;exitY=0.5;exitDx=0;exitDy=0;startArrow=classic;startFill=1;dashed=1;" edge="1" parent="1" source="ceFsXSFSjBCuf6hGeXLl-95" target="ceFsXSFSjBCuf6hGeXLl-98">
          <mxGeometry width="50" height="50" relative="1" as="geometry">
            <mxPoint x="637.25" y="845" as="sourcePoint" />
            <mxPoint x="541.25" y="805" as="targetPoint" />
          </mxGeometry>
        </mxCell>
        <mxCell id="ceFsXSFSjBCuf6hGeXLl-100" value="&amp;lt;&amp;lt;extends&amp;gt;&amp;gt;" style="edgeLabel;html=1;align=center;verticalAlign=middle;resizable=0;points=[];" vertex="1" connectable="0" parent="ceFsXSFSjBCuf6hGeXLl-99">
          <mxGeometry x="-0.4177" relative="1" as="geometry">
            <mxPoint x="-24" y="19" as="offset" />
          </mxGeometry>
        </mxCell>
        <mxCell id="ceFsXSFSjBCuf6hGeXLl-101" value="Create reservation" style="ellipse;whiteSpace=wrap;html=1;" vertex="1" parent="1">
          <mxGeometry x="441.25" y="815" width="105" height="70" as="geometry" />
        </mxCell>
        <mxCell id="ceFsXSFSjBCuf6hGeXLl-102" value="" style="endArrow=none;html=1;rounded=0;entryX=1;entryY=1;entryDx=0;entryDy=0;exitX=0;exitY=0.5;exitDx=0;exitDy=0;startArrow=classic;startFill=1;dashed=1;" edge="1" parent="1" source="ceFsXSFSjBCuf6hGeXLl-95" target="ceFsXSFSjBCuf6hGeXLl-101">
          <mxGeometry width="50" height="50" relative="1" as="geometry">
            <mxPoint x="623.78" y="970" as="sourcePoint" />
            <mxPoint x="555.78" y="970" as="targetPoint" />
          </mxGeometry>
        </mxCell>
        <mxCell id="ceFsXSFSjBCuf6hGeXLl-103" value="&amp;lt;&amp;lt;extends&amp;gt;&amp;gt;" style="edgeLabel;html=1;align=center;verticalAlign=middle;resizable=0;points=[];" vertex="1" connectable="0" parent="ceFsXSFSjBCuf6hGeXLl-102">
          <mxGeometry x="-0.4177" relative="1" as="geometry">
            <mxPoint x="-26" y="-49" as="offset" />
          </mxGeometry>
        </mxCell>
      </root>
    </mxGraphModel>
  </diagram>
</mxfile>
